<svg xmlns="http://www.w3.org/2000/svg" viewBox="0 0 485.71 486.72"><defs><style>.cls-1{fill:#40596b;}.cls-2{fill:#cdd6e0;}.cls-3{fill:#f2f2f2;}.cls-4{fill:#acb3ba;}.cls-5{fill:#9eacb7;}.cls-6{fill:#fff;}.cls-7{fill:#ffd15c;}.cls-8{fill:#ff7058;}</style></defs><title>Asset 1</title><g id="Layer_2" data-name="Layer 2"><g id="Layer_1-2" data-name="Layer 1"><path class="cls-1" d="M485.71,16.19A16,16,0,0,0,469.52,0H20.24A20.3,20.3,0,0,0,0,20.24V331.9H485.71Z"/><path class="cls-2" d="M0,331.9v38.45a20.3,20.3,0,0,0,20.24,20.24H465.47a20.3,20.3,0,0,0,20.24-20.24V331.9Z"/><circle class="cls-3" cx="442.2" cy="361.24" r="11.13"/><circle class="cls-3" cx="397.67" cy="361.24" r="11.13"/><polygon class="cls-4" points="344.04 450.29 141.66 450.29 163.93 405.77 170 390.59 315.71 390.59 321.78 405.77 344.04 450.29"/><path class="cls-2" d="M361.24,450.29H124.46a18.21,18.21,0,1,0,0,36.43H361.24a18.21,18.21,0,0,0,0-36.43Z"/><polygon class="cls-5" points="321.78 405.77 163.93 405.77 170 390.59 315.71 390.59 321.78 405.77"/><rect class="cls-6" x="32.38" y="29.34" width="420.95" height="272.2"/><rect class="cls-2" x="244.88" y="69.82" width="155.83" height="25.3"/><rect class="cls-2" x="244.88" y="112.32" width="155.83" height="25.3"/><rect class="cls-2" x="86.01" y="195.29" width="155.83" height="25.3"/><rect class="cls-2" x="86.01" y="236.78" width="155.83" height="25.3"/><rect class="cls-7" x="83.99" y="59.7" width="138.63" height="88.03"/><rect class="cls-8" x="263.09" y="185.18" width="138.63" height="88.03"/></g></g></svg>