<svg xmlns="http://www.w3.org/2000/svg" viewBox="0 0 501.55 501.55"><defs><style>.cls-1{fill:#f2f2f2;}.cls-2{fill:#cdd6e0;}.cls-3{fill:#ff7058;}.cls-4{fill:#ffd05c;}.cls-5{fill:#40596b;}.cls-6{fill:#84dbff;}.cls-7{fill:#54c0eb;}.cls-8{fill:#ffd15c;}.cls-9{fill:#55bfe9;}</style></defs><title>Asset 1</title><g id="Layer_2" data-name="Layer 2"><g id="Layer_1-2" data-name="Layer 1"><path class="cls-1" d="M337.5,0h-279a21,21,0,0,0-20.9,20.9V480.65a21,21,0,0,0,20.9,20.9H443a21,21,0,0,0,20.9-20.9V126.43Z"/><path class="cls-2" d="M337.5,105.53a21,21,0,0,0,20.9,20.9H463.93L337.5,0Z"/><path class="cls-3" d="M491.1,398.11H10.45C4.18,398.11,0,402.29,0,408.56v60.6c0,6.27,4.18,10.45,10.45,10.45H491.1c6.27,0,10.45-4.18,10.45-10.45v-60.6A10.47,10.47,0,0,0,491.1,398.11Z"/><rect class="cls-1" x="20.9" y="398.11" width="5.22" height="21.94"/><rect class="cls-1" x="62.69" y="398.11" width="5.22" height="21.94"/><rect class="cls-1" x="104.49" y="398.11" width="5.22" height="21.94"/><rect class="cls-1" x="145.24" y="398.11" width="5.22" height="21.94"/><rect class="cls-1" x="187.04" y="398.11" width="5.22" height="21.94"/><rect class="cls-1" x="228.83" y="398.11" width="5.22" height="21.94"/><rect class="cls-1" x="270.63" y="398.11" width="5.22" height="21.94"/><rect class="cls-1" x="311.38" y="398.11" width="5.22" height="21.94"/><rect class="cls-1" x="353.18" y="398.11" width="5.22" height="21.94"/><rect class="cls-1" x="394.97" y="398.11" width="5.22" height="21.94"/><rect class="cls-1" x="436.77" y="398.11" width="5.22" height="21.94"/><rect class="cls-1" x="478.56" y="398.11" width="5.22" height="21.94"/><path class="cls-3" d="M501.55,345.86h0a18.73,18.73,0,0,0-18.81-18.81H445.13v37.62h37.62A18.73,18.73,0,0,0,501.55,345.86Z"/><polygon class="cls-4" points="57.47 327.05 57.47 364.67 21.94 353.18 0 345.86 21.94 338.55 57.47 327.05"/><polygon class="cls-5" points="21.94 338.55 21.94 353.18 0 345.86 21.94 338.55"/><polygon class="cls-6" points="57.47 327.05 57.47 338.55 427.36 338.55 427.36 338.55 427.36 327.05 57.47 327.05"/><rect class="cls-7" x="57.47" y="338.55" width="369.89" height="14.63"/><rect class="cls-6" x="57.47" y="353.18" width="369.89" height="11.49"/><rect class="cls-8" x="427.36" y="327.05" width="17.76" height="37.62"/><path class="cls-9" d="M427.36,327.05h0Z"/><polygon class="cls-8" points="445.13 338.55 445.13 338.55 445.13 327.05 445.13 338.55"/><polygon class="cls-9" points="445.13 353.18 445.13 353.18 445.13 338.55 445.13 338.55 445.13 353.18"/><rect class="cls-2" x="230.92" y="154.64" width="71.05" height="71.05"/><polygon class="cls-3" points="206.89 202.71 164.05 273.76 249.73 273.76 206.89 202.71"/><circle class="cls-5" cx="300.93" cy="224.65" r="36.57"/><path class="cls-1" d="M300.93,188.08v36.57H264.36C264.36,204.8,281.08,188.08,300.93,188.08Z"/></g></g></svg>